<svg xmlns="http://www.w3.org/2000/svg" width="584.967" height="581.201"><g fill="none"><path d="M294.5.398c163.5-9 303.5 136 289.5 291s-129 302-289.5 289c-66.5-7-120.992-36.643-170.5-75-68.378-52.976-124-120.946-124-214 0-160.163 131-282 294.5-291z"/><path d="M308.969 2c-4.764 0-9.595.133-14.36.395-20.039 1.103-39.973 3.952-59.25 8.469-18.919 4.433-37.444 10.527-55.06 18.114-17.42 7.501-34.15 16.547-49.725 26.885-15.529 10.307-30.078 22.01-43.244 34.784-13.237 12.843-25.22 26.91-35.619 41.81-10.538 15.102-19.573 31.24-26.854 47.967a274.234 274.234 0 00-16.951 53.264C3.987 252.449 2 271.866 2 291.398c0 11.288.841 22.538 2.5 33.438a215.46 215.46 0 007.17 31.215c3.04 9.816 6.857 19.617 11.344 29.13 4.313 9.143 9.37 18.286 15.031 27.172 5.422 8.51 11.555 17.035 18.23 25.336 6.364 7.914 13.408 15.859 20.938 23.615 7.135 7.35 14.924 14.753 23.15 22.005 7.733 6.818 16.098 13.718 24.862 20.508 27.201 21.075 52.878 37.111 78.497 49.026a309.802 309.802 0 0021.366 8.99 289.59 289.59 0 0022.23 7.364 279.325 279.325 0 0023.178 5.579 278.524 278.524 0 0024.19 3.63c6.514.528 13.085.795 19.53.795 35.906 0 70.465-8.135 102.716-24.18 15.234-7.577 29.986-16.968 43.848-27.91 13.488-10.648 26.304-22.898 38.091-36.41 11.55-13.24 22.233-27.829 31.753-43.36 9.406-15.347 17.76-31.748 24.828-48.748a367.99 367.99 0 0017.32-52.566c4.474-18.05 7.581-36.49 9.236-54.809 1.621-17.947 1.178-36.197-1.317-54.242-2.421-17.513-6.796-35-13.002-51.975-6.074-16.616-13.943-32.853-23.386-48.26-9.34-15.24-20.262-29.737-32.464-43.09a289.307 289.307 0 00-41.871-37.679c-15.304-11.275-31.706-21.002-48.75-28.911-17.45-8.097-35.671-14.33-54.156-18.528A262.783 262.783 0 00308.97 2m0-2C466.168 0 597.586 140.986 584 291.398c-13.42 148.576-119.643 289.803-269.785 289.803a244.13 244.13 0 01-19.715-.803c-66.5-7-120.992-36.643-170.5-75-68.378-52.976-124-120.946-124-214 0-160.163 131-282 294.5-291C299.34.132 304.173 0 308.969 0z" fill="#f3d4bc"/></g></svg>