<svg width="1288" height="744" fill="none" xmlns="http://www.w3.org/2000/svg"><g opacity=".6"><g filter="url(#filter0_f)"><path d="M426.667 347.822c49.851 8.632 88.832 31.479 104.311 59.352 15.035 27.074.423 55.64-27.267 79.386-27.417 23.513-68.031 42.984-118.059 45.244-48.954 2.212-91.57-14.615-125.972-34.218-34.441-19.625-64.876-43.85-58.933-71.147 5.949-27.323 45.971-46.706 87.758-61.247 42.166-14.674 90.721-25.584 138.162-17.37z" fill="#FAFF00"/></g><g filter="url(#filter1_f)"><path d="M911.498 345.084c68.826 1.792 139.242 20.792 167.872 50.413 26.19 27.101-13.27 56.66-37.88 84.09-16.78 18.706-41.585 34.928-78.349 45.471-33.188 9.517-71.83 7.17-110.521 8.692-60.222 2.37-126.857 20.191-174.31 2.516-50.843-18.939-61.444-55.393-47.961-85.309 12.856-28.524 67.047-45.972 115.322-64.151 50.909-19.17 100.82-43.415 165.827-41.722z" fill="#FF85F7"/></g><g filter="url(#filter2_f)"><path d="M643.206 209.171c60.493 10.404 94.107 48.376 128.067 82.377 31.788 31.826 62.852 65.231 57.016 102.929-6.201 40.048-39.623 76.196-88.595 101.041-51.423 26.088-115.59 40.574-180.472 35.464-67.814-5.341-136.085-25.289-171.242-63.163-33.479-36.067-12.195-80.063-.072-121.391 11.746-40.045 19.233-83.113 67.703-109.172 51.306-27.584 123.111-39.176 187.595-28.085z" fill="#47D16C"/></g><g filter="url(#filter3_f)"><path d="M772.962 380.054c21.851 1.144 44.208 13.269 53.297 32.173 8.316 17.295-4.214 36.16-12.026 53.666-5.328 11.937-13.203 22.29-24.875 29.018-10.537 6.074-22.806 4.576-35.09 5.548-19.12 1.512-40.276 12.885-55.342 1.605-16.143-12.086-19.508-35.351-15.228-54.443 4.082-18.204 21.287-29.339 36.614-40.941 16.164-12.234 32.01-27.707 52.65-26.626z" fill="#0073FA"/></g></g><defs><filter id="filter0_f" x="0" y="145" width="737" height="587" filterUnits="userSpaceOnUse" color-interpolation-filters="sRGB"><feFlood flood-opacity="0" result="BackgroundImageFix"/><feBlend in="SourceGraphic" in2="BackgroundImageFix" result="shape"/><feGaussianBlur stdDeviation="100" result="effect1_foregroundBlur"/></filter><filter id="filter1_f" x="425" y="145" width="863" height="599" filterUnits="userSpaceOnUse" color-interpolation-filters="sRGB"><feFlood flood-opacity="0" result="BackgroundImageFix"/><feBlend in="SourceGraphic" in2="BackgroundImageFix" result="shape"/><feGaussianBlur stdDeviation="100" result="effect1_foregroundBlur"/></filter><filter id="filter2_f" x="170" y="5" width="859" height="727" filterUnits="userSpaceOnUse" color-interpolation-filters="sRGB"><feFlood flood-opacity="0" result="BackgroundImageFix"/><feBlend in="SourceGraphic" in2="BackgroundImageFix" result="shape"/><feGaussianBlur stdDeviation="100" result="effect1_foregroundBlur"/></filter><filter id="filter3_f" x="522" y="220" width="467" height="447" filterUnits="userSpaceOnUse" color-interpolation-filters="sRGB"><feFlood flood-opacity="0" result="BackgroundImageFix"/><feBlend in="SourceGraphic" in2="BackgroundImageFix" result="shape"/><feGaussianBlur stdDeviation="80" result="effect1_foregroundBlur"/></filter></defs></svg>