<svg xmlns="http://www.w3.org/2000/svg" viewBox="0 0 138 82"><path d="M54.8 72.3c-9.1 0-23.2-7.3-31.1-23.8C13.4 60.7 11 63.6 9.5 63.9c-1.3 0-1.7-.7-1.8-2C7.7 54 26.2 18 27.8 17.5c.2 0 .4 0 .7.2.2 0 .2.2.2.6v.3c0 1.7-.9 4.8-1.7 4.9-.7.1-3.6 5-8 13.7-3.8 7.5-9.3 20-9.3 23.6v.7C11 61 22.8 46.9 22.8 46.9c-.4-1.3-.3-.6-.5-1.9 0-.4.2-.7.5-.7.4 0 .8.2 1.7.8 9.2-10.5 10.1-11 10.1-11.4-.1-.3-.4-.3-.4-.8 0-.8 2.6-1.6 6.3-5.1C51.1 16.8 61 8.6 64.3 8.3c.6 0 .9.3.9.8 0 3-11.1 13.3-23.3 20.5-1.9 1.2-2.8 1-16.8 17.3 1.9 5 12.3 22.7 30 23.6 1.9 0 1.8.7 1.9 1 0 .2-.4.8-.7.8h-1.5zm7.6-61.4h-.1c-1.9.4-17.5 14.4-17.5 14.7 1 0 17.6-12.9 17.6-14.7z"/><path d="M36.7 52.1c0-1.9 2.3-4.7 2.7-4.7.7 0 1.1.2 1.1.7 0 .2-.3 1-.7 1-.1 0-1.2 1.4-1.2 2.4 0 .4.2.7.9.7 2 0 4.7-2.2 7.1-4.2l.4-.1c.4 0 .8.4.8.9s-.6 1.2-.6 1.8c0 .5.3.9 1.3.9 4.1 0 8.4-3.3 8.9-3.3s.6.4.6.7c0 .3-5.5 4.3-9.6 4.3-2.3 0-2.7-1.1-2.7-1.8l.1-.7c-1.4 1.6-4.7 3.3-6.4 3.4-1.8-.2-2.7-1-2.7-2z"/><path d="M54.6 52.9c0-1.2 2.4-5.1 3.3-5.1.2 0 .7.1.7.7s-1.8 2.3-1.8 3c0 .1.1.3.4.3.4 0 5.7-4.1 7.7-4.1.7 0 1 .3 1 .8 0 1-.6 2.7-.6 3.3 0 .1.1.4.4.4 2.3 0 9-3.4 9.8-4.1 0 0 .6.5.6.8-2.2 2.3-9.2 4.9-10.9 4.9-1.3 0-1.7-.9-1.7-1.5 0-1.1.5-2.3.5-2.7l-.1-.1c-1.5 0-7 4.7-8 4.7-.7-.1-1.3-.5-1.3-1.3z"/><path d="M98.2 26.6c.4 0 .8.3.8.9 0 3.7-14.8 19.9-14.8 19.9s-.4 1-.4 2c0 1.2.6 2.5 2.5 2.5 2.7 0 7.6-3.8 7.8-3.8s.3.1.3.6c0 .6-.2.8-.3.9-.9.6-4.8 4-8.1 4-3.9 0-4.2-2.5-4.2-3.8v-.7s-5 5.9-8.5 5.9c-1 0-1.7-.7-1.7-1.6 0-3.7 5.9-7.5 7.1-7.5.6 0 .7.7.7.9 0 .6-.3 1.3-1.2 1.6-1.6.4-4.5 3.1-4.5 4.2 0 .1.1.2.3.2 2.3 0 8.5-6.8 8.5-6.8 3.1-7.7 13.4-19.4 15.7-19.4zm-6.3 9.1c2.7-3.4 4.5-6.2 4.5-6.3-.1 0-2.5 2.4-5.2 5.9s-6.1 8.6-6.1 8.8c.2 0 4.1-4.9 6.8-8.4z"/><path d="M90.4 52.2c0-2.9 6.3-6.2 9.4-6.2 1.2 0 1.5.6 1.5 1.1 0 .4-.3.8-.4.8l-.1 1.4c0 1 .3 2.2 1.7 2.2 3 0 9.6-3.5 9.6-3.5.2 0 .9.7.9 1 0 .4-7.5 4.2-10.6 4.2-2.9 0-3.1-2.6-3.1-3.2v-.1c-1.7 1.3-4.2 4.4-7.1 4.4-1.2 0-1.8-1.1-1.8-2.1zm8.6-4.1c-2.1 0-6.9 2-6.9 4.2 0 .2.3.4.6.4 1.6-.1 5.3-3.7 6.3-4.6z"/><path d="M109.2 52.9c0-1.2 2.4-5.1 3.3-5.1.2 0 .7.1.7.7s-1.8 2.3-1.8 3c0 .1.1.3.4.3.4 0 5.7-4.1 7.7-4.1.7 0 1 .3 1 .8 0 1-.6 2.7-.6 3.3 0 .1.1.4.4.4 2.3 0 9-3.4 9.8-4.1 0 0 .6.5.6.8-2.2 2.3-9.2 4.9-10.9 4.9-1.3 0-1.7-.9-1.7-1.5 0-1.1.5-2.3.5-2.7l-.1-.1c-1.5 0-7 4.7-8 4.7-.7-.1-1.3-.5-1.3-1.3z"/></svg>